<svg xmlns="http://www.w3.org/2000/svg" xmlns:xlink="http://www.w3.org/1999/xlink" width="340" zoomAndPan="magnify" viewBox="0 0 255 270" height="360" preserveAspectRatio="xMidYMid meet" version="1"><defs><clipPath id="Infinity"><path d="M 17.242188 42 L 237.742188 42 L 237.742188 186 L 17.242188 186 Z M 17.242188 42" clip-rule="nonzero"/></clipPath><clipPath id="6f70a94d7f"><path d="M 87 216 L 168 216 L 168 253.007812 L 87 253.007812 Z M 87 216" clip-rule="nonzero"/></clipPath></defs><path fill="#7a9aa5" d="M 146.0625 241.550781 L 109.25 241.550781 C 104.9375 211.597656 100.625 181.644531 96.316406 151.6875 C 117.097656 151.6875 137.882812 151.6875 158.664062 151.6875 C 154.460938 181.644531 150.261719 211.597656 146.0625 241.550781 Z M 146.0625 241.550781" fill-opacity="1" fill-rule="nonzero"/><g clip-path="url(#8e41117388)"><path fill="#59818e" d="M 225.707031 185.988281 L 29.269531 185.988281 C 22.65625 185.988281 17.242188 180.574219 17.242188 173.960938 L 17.242188 54.484375 C 17.242188 47.867188 22.65625 42.453125 29.269531 42.453125 L 225.707031 42.453125 C 232.324219 42.453125 237.738281 47.867188 237.738281 54.484375 L 237.738281 173.960938 C 237.738281 180.574219 232.324219 185.988281 225.707031 185.988281 Z M 225.707031 185.988281" fill-opacity="1" fill-rule="nonzero"/></g><path fill="#f2f5f7" d="M 224.070312 175.15625 L 31.671875 175.15625 C 27.550781 175.15625 24.175781 171.78125 24.175781 167.660156 L 24.175781 60.78125 C 24.175781 56.660156 27.550781 53.285156 31.671875 53.285156 L 224.070312 53.285156 C 228.195312 53.285156 231.566406 56.660156 231.566406 60.78125 L 231.566406 167.660156 C 231.566406 171.78125 228.195312 175.15625 224.070312 175.15625 Z M 224.070312 175.15625" fill-opacity="1" fill-rule="nonzero"/><path fill="#efdbff" d="M 119.546875 50.449219 L 120.753906 50.449219 C 121.972656 50.449219 122.964844 49.453125 122.964844 48.234375 C 122.964844 47.019531 121.972656 46.023438 120.753906 46.023438 L 119.546875 46.023438 C 118.332031 46.023438 117.335938 47.019531 117.335938 48.234375 C 117.335938 49.453125 118.332031 50.449219 119.546875 50.449219 Z M 119.546875 50.449219" fill-opacity="1" fill-rule="nonzero"/><path fill="#efdbff" d="M 127.46875 50.449219 L 128.671875 50.449219 C 129.890625 50.449219 130.886719 49.453125 130.886719 48.234375 C 130.886719 47.019531 129.890625 46.023438 128.671875 46.023438 L 127.46875 46.023438 C 126.25 46.023438 125.253906 47.019531 125.253906 48.234375 C 125.253906 49.453125 126.25 50.449219 127.46875 50.449219 Z M 127.46875 50.449219" fill-opacity="1" fill-rule="nonzero"/><path fill="#efdbff" d="M 135 50.449219 L 136.207031 50.449219 C 137.421875 50.449219 138.417969 49.453125 138.417969 48.234375 C 138.417969 47.019531 137.421875 46.023438 136.207031 46.023438 L 135 46.023438 C 133.78125 46.023438 132.789062 47.019531 132.789062 48.234375 C 132.789062 49.453125 133.78125 50.449219 135 50.449219 Z M 135 50.449219" fill-opacity="1" fill-rule="nonzero"/><g clip-path="url(#6f70a94d7f)"><path fill="#59818e" d="M 91.402344 253.003906 C 89.082031 253.003906 87.273438 251.179688 87.519531 249.09375 C 89.675781 230.863281 106.75 216.664062 127.488281 216.664062 C 148.230469 216.664062 165.300781 230.863281 167.460938 249.09375 C 167.707031 251.183594 165.898438 253.003906 163.574219 253.003906 Z M 91.402344 253.003906" fill-opacity="1" fill-rule="nonzero"/></g><path fill="#bdcdd2" d="M 130.179688 182.449219 L 124.796875 182.449219 C 123.574219 182.449219 122.582031 181.457031 122.582031 180.230469 C 122.582031 179.007812 123.574219 178.015625 124.796875 178.015625 L 130.179688 178.015625 C 131.402344 178.015625 132.394531 179.007812 132.394531 180.230469 C 132.394531 181.457031 131.402344 182.449219 130.179688 182.449219 Z M 130.179688 182.449219" fill-opacity="1" fill-rule="nonzero"/><path fill="#dee6e8" d="M 118.300781 124.859375 L 35.535156 124.859375 C 34.511719 124.859375 33.683594 124.03125 33.683594 123.007812 C 33.683594 121.988281 34.511719 121.15625 35.535156 121.15625 L 118.300781 121.15625 C 119.324219 121.15625 120.152344 121.988281 120.152344 123.007812 C 120.152344 124.03125 119.324219 124.859375 118.300781 124.859375 Z M 118.300781 124.859375" fill-opacity="1" fill-rule="nonzero"/><path fill="#dee6e8" d="M 118.300781 138.132812 L 35.535156 138.132812 C 34.511719 138.132812 33.683594 137.304688 33.683594 136.285156 C 33.683594 135.261719 34.511719 134.433594 35.535156 134.433594 L 118.300781 134.433594 C 119.324219 134.433594 120.152344 135.261719 120.152344 136.285156 C 120.152344 137.304688 119.324219 138.132812 118.300781 138.132812 Z M 118.300781 138.132812" fill-opacity="1" fill-rule="nonzero"/><path fill="#dee6e8" d="M 118.300781 151.410156 L 35.535156 151.410156 C 34.511719 151.410156 33.683594 150.582031 33.683594 149.558594 C 33.683594 148.539062 34.511719 147.707031 35.535156 147.707031 L 118.300781 147.707031 C 119.324219 147.707031 120.152344 148.539062 120.152344 149.558594 C 120.152344 150.582031 119.324219 151.410156 118.300781 151.410156 Z M 118.300781 151.410156" fill-opacity="1" fill-rule="nonzero"/><path fill="#dee6e8" d="M 118.300781 164.6875 L 35.535156 164.6875 C 34.511719 164.6875 33.683594 163.855469 33.683594 162.835938 C 33.683594 161.8125 34.511719 160.984375 35.535156 160.984375 L 118.300781 160.984375 C 119.324219 160.984375 120.152344 161.8125 120.152344 162.835938 C 120.152344 163.855469 119.324219 164.6875 118.300781 164.6875 Z M 118.300781 164.6875" fill-opacity="1" fill-rule="nonzero"/><path fill="#dee6e8" d="M 220.21875 68.0625 L 137.453125 68.0625 C 136.429688 68.0625 135.601562 67.234375 135.601562 66.210938 C 135.601562 65.1875 136.429688 64.359375 137.453125 64.359375 L 220.21875 64.359375 C 221.242188 64.359375 222.070312 65.1875 222.070312 66.210938 C 222.070312 67.234375 221.242188 68.0625 220.21875 68.0625 Z M 220.21875 68.0625" fill-opacity="1" fill-rule="nonzero"/><path fill="#dee6e8" d="M 220.21875 81.335938 L 137.453125 81.335938 C 136.429688 81.335938 135.601562 80.507812 135.601562 79.488281 C 135.601562 78.464844 136.429688 77.636719 137.453125 77.636719 L 220.21875 77.636719 C 221.242188 77.636719 222.070312 78.464844 222.070312 79.488281 C 222.070312 80.507812 221.242188 81.335938 220.21875 81.335938 Z M 220.21875 81.335938" fill-opacity="1" fill-rule="nonzero"/><path fill="#dee6e8" d="M 220.21875 94.613281 L 137.453125 94.613281 C 136.429688 94.613281 135.601562 93.785156 135.601562 92.761719 C 135.601562 91.742188 136.429688 90.910156 137.453125 90.910156 L 220.21875 90.910156 C 221.242188 90.910156 222.070312 91.742188 222.070312 92.761719 C 222.070312 93.785156 221.242188 94.613281 220.21875 94.613281 Z M 220.21875 94.613281" fill-opacity="1" fill-rule="nonzero"/><path fill="#dee6e8" d="M 220.21875 107.886719 L 137.453125 107.886719 C 136.429688 107.886719 135.601562 107.058594 135.601562 106.039062 C 135.601562 105.015625 136.429688 104.1875 137.453125 104.1875 L 220.21875 104.1875 C 221.242188 104.1875 222.070312 105.015625 222.070312 106.039062 C 222.070312 107.0625 221.242188 107.886719 220.21875 107.886719 Z M 220.21875 107.886719" fill-opacity="1" fill-rule="nonzero"/><path fill="#dee6e8" d="M 77.203125 110.773438 L 40.304688 110.773438 C 36.648438 110.773438 33.683594 107.808594 33.683594 104.152344 L 33.683594 67.25 C 33.683594 63.59375 36.648438 60.628906 40.304688 60.628906 L 77.203125 60.628906 C 80.859375 60.628906 83.820312 63.59375 83.820312 67.25 L 83.820312 104.152344 C 83.820312 107.808594 80.859375 110.773438 77.203125 110.773438 Z M 77.203125 110.773438" fill-opacity="1" fill-rule="nonzero"/><path fill="#dee6e8" d="M 214.929688 165.875 L 178.03125 165.875 C 174.375 165.875 171.414062 162.910156 171.414062 159.253906 L 171.414062 122.351562 C 171.414062 118.691406 174.378906 115.730469 178.03125 115.730469 L 214.929688 115.730469 C 218.585938 115.730469 221.550781 118.695312 221.550781 122.351562 L 221.550781 159.253906 C 221.550781 162.910156 218.585938 165.875 214.929688 165.875 Z M 214.929688 165.875" fill-opacity="1" fill-rule="nonzero"/><path fill="#aabec5" d="M 215.101562 57.675781 L 215.101562 157.726562 C 215.101562 163.949219 210.121094 168.996094 203.980469 168.996094 L 51 168.996094 C 44.855469 168.996094 39.878906 163.949219 39.878906 157.726562 L 39.878906 57.675781 C 39.878906 51.453125 44.855469 46.410156 51 46.410156 L 203.980469 46.410156 C 210.121094 46.410156 215.101562 51.453125 215.101562 57.675781 Z M 215.101562 57.675781" fill-opacity="1" fill-rule="nonzero"/><path fill="#43616b" d="M 215.101562 55.175781 L 215.101562 70.316406 L 39.878906 70.316406 L 39.878906 55.175781 C 39.878906 50.332031 44.855469 46.410156 51 46.410156 L 203.980469 46.410156 C 210.121094 46.410156 215.101562 50.332031 215.101562 55.175781 Z M 215.101562 55.175781" fill-opacity="1" fill-rule="nonzero"/><path fill="#59818e" d="M 51.910156 58.652344 C 51.910156 59.03125 51.839844 59.398438 51.695312 59.75 C 51.546875 60.097656 51.34375 60.40625 51.074219 60.675781 C 50.804688 60.945312 50.496094 61.152344 50.144531 61.296875 C 49.796875 61.441406 49.429688 61.515625 49.050781 61.515625 C 48.671875 61.515625 48.308594 61.441406 47.957031 61.296875 C 47.605469 61.152344 47.296875 60.945312 47.03125 60.675781 C 46.761719 60.40625 46.554688 60.097656 46.410156 59.75 C 46.265625 59.398438 46.191406 59.03125 46.191406 58.652344 C 46.191406 58.273438 46.265625 57.910156 46.410156 57.558594 C 46.554688 57.207031 46.761719 56.898438 47.03125 56.632812 C 47.296875 56.363281 47.605469 56.15625 47.957031 56.011719 C 48.308594 55.867188 48.671875 55.792969 49.050781 55.792969 C 49.429688 55.792969 49.796875 55.867188 50.144531 56.011719 C 50.496094 56.15625 50.804688 56.363281 51.074219 56.632812 C 51.34375 56.898438 51.546875 57.207031 51.695312 57.558594 C 51.839844 57.910156 51.910156 58.273438 51.910156 58.652344 Z M 51.910156 58.652344" fill-opacity="1" fill-rule="nonzero"/><path fill="#7a9aa5" d="M 59.6875 58.652344 C 59.6875 59.03125 59.613281 59.398438 59.46875 59.75 C 59.324219 60.097656 59.117188 60.40625 58.847656 60.675781 C 58.578125 60.945312 58.269531 61.152344 57.921875 61.296875 C 57.570312 61.441406 57.207031 61.515625 56.824219 61.515625 C 56.445312 61.515625 56.082031 61.441406 55.730469 61.296875 C 55.382812 61.152344 55.070312 60.945312 54.804688 60.675781 C 54.535156 60.40625 54.328125 60.097656 54.183594 59.75 C 54.039062 59.398438 53.964844 59.03125 53.964844 58.652344 C 53.964844 58.273438 54.039062 57.910156 54.183594 57.558594 C 54.328125 57.207031 54.535156 56.898438 54.804688 56.632812 C 55.070312 56.363281 55.382812 56.15625 55.730469 56.011719 C 56.082031 55.867188 56.445312 55.792969 56.824219 55.792969 C 57.207031 55.792969 57.570312 55.867188 57.921875 56.011719 C 58.269531 56.15625 58.578125 56.363281 58.847656 56.632812 C 59.117188 56.898438 59.324219 57.207031 59.46875 57.558594 C 59.613281 57.910156 59.6875 58.273438 59.6875 58.652344 Z M 59.6875 58.652344" fill-opacity="1" fill-rule="nonzero"/><path fill="#9bb3bb" d="M 67.40625 58.652344 C 67.40625 59.03125 67.332031 59.398438 67.1875 59.75 C 67.042969 60.097656 66.835938 60.40625 66.570312 60.675781 C 66.300781 60.945312 65.992188 61.152344 65.640625 61.296875 C 65.289062 61.441406 64.925781 61.515625 64.546875 61.515625 C 64.167969 61.515625 63.800781 61.441406 63.453125 61.296875 C 63.101562 61.152344 62.792969 60.945312 62.523438 60.675781 C 62.257812 60.40625 62.050781 60.097656 61.90625 59.75 C 61.757812 59.398438 61.6875 59.03125 61.6875 58.652344 C 61.6875 58.273438 61.757812 57.910156 61.90625 57.558594 C 62.050781 57.207031 62.257812 56.898438 62.523438 56.632812 C 62.792969 56.363281 63.101562 56.15625 63.453125 56.011719 C 63.800781 55.867188 64.167969 55.792969 64.546875 55.792969 C 64.925781 55.792969 65.289062 55.867188 65.640625 56.011719 C 65.992188 56.15625 66.300781 56.363281 66.570312 56.632812 C 66.835938 56.898438 67.042969 57.207031 67.1875 57.558594 C 67.332031 57.910156 67.40625 58.273438 67.40625 58.652344 Z M 67.40625 58.652344" fill-opacity="1" fill-rule="nonzero"/><path fill="#698189" d="M 62.753906 119.414062 C 62.753906 119.878906 62.710938 120.34375 62.617188 120.804688 C 62.527344 121.261719 62.390625 121.707031 62.210938 122.140625 C 62.035156 122.574219 61.8125 122.984375 61.554688 123.375 C 61.292969 123.761719 60.996094 124.125 60.667969 124.453125 C 60.335938 124.785156 59.976562 125.082031 59.585938 125.339844 C 59.195312 125.601562 58.785156 125.820312 58.355469 126 C 57.921875 126.179688 57.476562 126.316406 57.015625 126.40625 C 56.558594 126.496094 56.09375 126.542969 55.625 126.542969 C 55.15625 126.542969 54.695312 126.496094 54.234375 126.40625 C 53.777344 126.316406 53.328125 126.179688 52.898438 126 C 52.464844 125.820312 52.054688 125.601562 51.664062 125.339844 C 51.273438 125.082031 50.914062 124.785156 50.585938 124.453125 C 50.253906 124.125 49.957031 123.761719 49.699219 123.375 C 49.4375 122.984375 49.21875 122.574219 49.039062 122.140625 C 48.859375 121.707031 48.722656 121.261719 48.632812 120.804688 C 48.542969 120.34375 48.496094 119.878906 48.496094 119.414062 C 48.496094 118.945312 48.542969 118.480469 48.632812 118.019531 C 48.722656 117.5625 48.859375 117.117188 49.039062 116.683594 C 49.21875 116.25 49.4375 115.839844 49.699219 115.449219 C 49.957031 115.0625 50.253906 114.703125 50.585938 114.371094 C 50.914062 114.039062 51.273438 113.742188 51.664062 113.484375 C 52.054688 113.222656 52.464844 113.003906 52.898438 112.824219 C 53.328125 112.644531 53.777344 112.511719 54.234375 112.417969 C 54.695312 112.328125 55.15625 112.28125 55.625 112.28125 C 56.09375 112.28125 56.558594 112.328125 57.015625 112.417969 C 57.476562 112.511719 57.921875 112.644531 58.355469 112.824219 C 58.785156 113.003906 59.195312 113.222656 59.585938 113.484375 C 59.976562 113.742188 60.335938 114.039062 60.667969 114.371094 C 60.996094 114.703125 61.292969 115.0625 61.554688 115.449219 C 61.8125 115.839844 62.035156 116.25 62.210938 116.683594 C 62.390625 117.117188 62.527344 117.5625 62.617188 118.019531 C 62.710938 118.480469 62.753906 118.945312 62.753906 119.414062 Z M 62.753906 119.414062" fill-opacity="1" fill-rule="nonzero"/><path fill="#ffc971" d="M 50.15625 117.773438 C 50.15625 118.003906 50.246094 118.238281 50.429688 118.417969 L 55.226562 123.167969 C 55.402344 123.34375 55.628906 123.429688 55.859375 123.433594 C 55.894531 123.4375 55.929688 123.441406 55.964844 123.441406 C 56.203125 123.441406 56.4375 123.351562 56.617188 123.171875 L 64.324219 115.542969 C 64.683594 115.1875 64.683594 114.609375 64.324219 114.25 C 64.144531 114.074219 63.90625 113.984375 63.671875 113.984375 C 63.433594 113.984375 63.199219 114.074219 63.019531 114.25 L 55.925781 121.277344 L 51.734375 117.125 C 51.371094 116.769531 50.789062 116.769531 50.429688 117.125 C 50.246094 117.304688 50.15625 117.539062 50.15625 117.773438 Z M 50.15625 117.773438" fill-opacity="1" fill-rule="nonzero"/><path fill="#698189" d="M 131.546875 117.101562 L 70.722656 117.101562 C 70.066406 117.101562 69.53125 116.566406 69.53125 115.910156 C 69.53125 115.25 70.066406 114.71875 70.722656 114.71875 L 131.546875 114.71875 C 132.203125 114.71875 132.738281 115.25 132.738281 115.910156 C 132.738281 116.566406 132.203125 117.101562 131.546875 117.101562 Z M 131.546875 117.101562" fill-opacity="1" fill-rule="nonzero"/><path fill="#698189" d="M 98.808594 124.175781 L 70.945312 124.175781 C 70.289062 124.175781 69.753906 123.640625 69.753906 122.984375 C 69.753906 122.324219 70.289062 121.789062 70.945312 121.789062 L 98.808594 121.789062 C 99.464844 121.789062 100 122.324219 100 122.984375 C 100 123.640625 99.464844 124.175781 98.808594 124.175781 Z M 98.808594 124.175781" fill-opacity="1" fill-rule="nonzero"/><path fill="#698189" d="M 62.753906 137.378906 C 62.753906 137.84375 62.710938 138.308594 62.617188 138.769531 C 62.527344 139.226562 62.390625 139.671875 62.210938 140.105469 C 62.035156 140.539062 61.8125 140.949219 61.554688 141.339844 C 61.292969 141.726562 60.996094 142.089844 60.667969 142.417969 C 60.335938 142.75 59.976562 143.046875 59.585938 143.304688 C 59.195312 143.566406 58.785156 143.785156 58.355469 143.964844 C 57.921875 144.144531 57.476562 144.28125 57.015625 144.371094 C 56.558594 144.460938 56.09375 144.507812 55.625 144.507812 C 55.15625 144.507812 54.695312 144.460938 54.234375 144.371094 C 53.777344 144.28125 53.328125 144.144531 52.898438 143.964844 C 52.464844 143.785156 52.054688 143.566406 51.664062 143.304688 C 51.273438 143.046875 50.914062 142.75 50.585938 142.417969 C 50.253906 142.089844 49.957031 141.726562 49.699219 141.339844 C 49.4375 140.949219 49.21875 140.539062 49.039062 140.105469 C 48.859375 139.671875 48.722656 139.226562 48.632812 138.769531 C 48.542969 138.308594 48.496094 137.84375 48.496094 137.378906 C 48.496094 136.910156 48.542969 136.445312 48.632812 135.984375 C 48.722656 135.527344 48.859375 135.082031 49.039062 134.648438 C 49.21875 134.214844 49.4375 133.804688 49.699219 133.414062 C 49.957031 133.027344 50.253906 132.664062 50.585938 132.335938 C 50.914062 132.003906 51.273438 131.707031 51.664062 131.449219 C 52.054688 131.1875 52.464844 130.96875 52.898438 130.789062 C 53.328125 130.609375 53.777344 130.476562 54.234375 130.382812 C 54.695312 130.292969 55.15625 130.246094 55.625 130.246094 C 56.09375 130.246094 56.558594 130.292969 57.015625 130.382812 C 57.476562 130.476562 57.921875 130.609375 58.355469 130.789062 C 58.785156 130.96875 59.195312 131.1875 59.585938 131.449219 C 59.976562 131.707031 60.335938 132.003906 60.667969 132.335938 C 60.996094 132.664062 61.292969 133.027344 61.554688 133.414062 C 61.8125 133.804688 62.035156 134.214844 62.210938 134.648438 C 62.390625 135.082031 62.527344 135.527344 62.617188 135.984375 C 62.710938 136.445312 62.753906 136.910156 62.753906 137.378906 Z M 62.753906 137.378906" fill-opacity="1" fill-rule="nonzero"/><path fill="#ffc971" d="M 50.15625 135.734375 C 50.15625 135.96875 50.246094 136.203125 50.429688 136.382812 L 55.226562 141.132812 C 55.402344 141.304688 55.628906 141.394531 55.859375 141.398438 C 55.894531 141.402344 55.929688 141.40625 55.964844 141.40625 C 56.203125 141.40625 56.4375 141.316406 56.617188 141.136719 L 64.324219 133.507812 C 64.683594 133.152344 64.683594 132.574219 64.324219 132.214844 C 64.144531 132.035156 63.90625 131.945312 63.671875 131.945312 C 63.433594 131.945312 63.199219 132.035156 63.019531 132.214844 L 55.925781 139.238281 L 51.734375 135.089844 C 51.371094 134.730469 50.789062 134.730469 50.429688 135.089844 C 50.246094 135.269531 50.15625 135.5 50.15625 135.734375 Z M 50.15625 135.734375" fill-opacity="1" fill-rule="nonzero"/><path fill="#698189" d="M 131.546875 135.066406 L 70.722656 135.066406 C 70.066406 135.066406 69.53125 134.53125 69.53125 133.875 C 69.53125 133.214844 70.066406 132.679688 70.722656 132.679688 L 131.546875 132.679688 C 132.203125 132.679688 132.738281 133.214844 132.738281 133.875 C 132.738281 134.53125 132.203125 135.066406 131.546875 135.066406 Z M 131.546875 135.066406" fill-opacity="1" fill-rule="nonzero"/><path fill="#698189" d="M 98.808594 142.136719 L 70.945312 142.136719 C 70.289062 142.136719 69.753906 141.605469 69.753906 140.945312 C 69.753906 140.289062 70.289062 139.753906 70.945312 139.753906 L 98.808594 139.753906 C 99.464844 139.753906 100 140.289062 100 140.945312 C 100 141.605469 99.464844 142.136719 98.808594 142.136719 Z M 98.808594 142.136719" fill-opacity="1" fill-rule="nonzero"/><path fill="#698189" d="M 63.3125 155.011719 C 63.3125 155.480469 63.265625 155.945312 63.175781 156.402344 C 63.082031 156.863281 62.949219 157.308594 62.769531 157.742188 C 62.589844 158.175781 62.371094 158.585938 62.109375 158.976562 C 61.847656 159.363281 61.554688 159.722656 61.222656 160.054688 C 60.890625 160.386719 60.53125 160.683594 60.140625 160.941406 C 59.753906 161.203125 59.34375 161.421875 58.910156 161.601562 C 58.476562 161.78125 58.03125 161.914062 57.570312 162.007812 C 57.113281 162.097656 56.648438 162.144531 56.179688 162.144531 C 55.714844 162.144531 55.25 162.097656 54.789062 162.007812 C 54.332031 161.914062 53.886719 161.78125 53.453125 161.601562 C 53.019531 161.421875 52.609375 161.203125 52.21875 160.941406 C 51.832031 160.683594 51.472656 160.386719 51.140625 160.054688 C 50.808594 159.722656 50.511719 159.363281 50.253906 158.976562 C 49.992188 158.585938 49.773438 158.175781 49.59375 157.742188 C 49.414062 157.308594 49.28125 156.863281 49.1875 156.402344 C 49.097656 155.945312 49.050781 155.480469 49.050781 155.011719 C 49.050781 154.542969 49.097656 154.082031 49.1875 153.621094 C 49.28125 153.164062 49.414062 152.71875 49.59375 152.285156 C 49.773438 151.851562 49.992188 151.441406 50.253906 151.050781 C 50.511719 150.664062 50.808594 150.300781 51.140625 149.972656 C 51.472656 149.640625 51.832031 149.34375 52.21875 149.085938 C 52.609375 148.824219 53.019531 148.605469 53.453125 148.425781 C 53.886719 148.246094 54.332031 148.109375 54.789062 148.019531 C 55.25 147.929688 55.714844 147.882812 56.179688 147.882812 C 56.648438 147.882812 57.113281 147.929688 57.570312 148.019531 C 58.03125 148.109375 58.476562 148.246094 58.910156 148.425781 C 59.34375 148.605469 59.753906 148.824219 60.140625 149.085938 C 60.53125 149.34375 60.890625 149.640625 61.222656 149.972656 C 61.554688 150.300781 61.847656 150.664062 62.109375 151.050781 C 62.371094 151.441406 62.589844 151.851562 62.769531 152.285156 C 62.949219 152.71875 63.082031 153.164062 63.175781 153.621094 C 63.265625 154.082031 63.3125 154.542969 63.3125 155.011719 Z M 63.3125 155.011719" fill-opacity="1" fill-rule="nonzero"/><path fill="#ffc971" d="M 50.714844 153.371094 C 50.714844 153.605469 50.804688 153.839844 50.984375 154.019531 L 55.78125 158.769531 C 55.957031 158.941406 56.1875 159.03125 56.417969 159.035156 C 56.453125 159.039062 56.488281 159.042969 56.523438 159.042969 C 56.757812 159.042969 56.996094 158.953125 57.175781 158.773438 L 64.878906 151.144531 C 65.238281 150.789062 65.238281 150.210938 64.878906 149.851562 C 64.699219 149.671875 64.460938 149.585938 64.226562 149.585938 C 63.992188 149.585938 63.753906 149.671875 63.574219 149.851562 L 56.480469 156.878906 L 52.289062 152.726562 C 51.929688 152.367188 51.34375 152.367188 50.984375 152.726562 C 50.804688 152.902344 50.714844 153.136719 50.714844 153.371094 Z M 50.714844 153.371094" fill-opacity="1" fill-rule="nonzero"/><path fill="#698189" d="M 132.101562 152.703125 L 71.28125 152.703125 C 70.621094 152.703125 70.089844 152.167969 70.089844 151.511719 C 70.089844 150.851562 70.621094 150.316406 71.28125 150.316406 L 132.101562 150.316406 C 132.761719 150.316406 133.292969 150.851562 133.292969 151.511719 C 133.292969 152.167969 132.761719 152.703125 132.101562 152.703125 Z M 132.101562 152.703125" fill-opacity="1" fill-rule="nonzero"/><path fill="#698189" d="M 99.363281 159.777344 L 71.503906 159.777344 C 70.84375 159.777344 70.308594 159.242188 70.308594 158.582031 C 70.308594 157.925781 70.84375 157.390625 71.503906 157.390625 L 99.363281 157.390625 C 100.023438 157.390625 100.558594 157.925781 100.558594 158.582031 C 100.558594 159.242188 100.023438 159.777344 99.363281 159.777344 Z M 99.363281 159.777344" fill-opacity="1" fill-rule="nonzero"/><path fill="#d5dfe2" d="M 141.179688 102.699219 L 58.207031 102.699219 C 52.542969 102.699219 47.957031 98.109375 47.957031 92.449219 C 47.957031 86.785156 52.542969 82.199219 58.207031 82.199219 L 141.179688 82.199219 C 146.839844 82.199219 151.425781 86.785156 151.425781 92.449219 C 151.425781 98.109375 146.839844 102.699219 141.179688 102.699219 Z M 141.179688 102.699219" fill-opacity="1" fill-rule="nonzero"/><path fill="#ffc971" d="M 144.730469 23.242188 C 144.730469 26.25 143.960938 29.074219 142.609375 31.535156 C 141.535156 33.484375 140.734375 35.566406 140.15625 37.714844 C 137.617188 47.164062 132.738281 57.128906 127.488281 57.121094 C 122.101562 57.113281 117.089844 46.601562 114.65625 36.992188 C 114.203125 35.203125 113.503906 33.492188 112.574219 31.894531 C 111.175781 29.488281 110.34375 26.710938 110.257812 23.746094 C 109.96875 13.726562 118.339844 5.527344 128.351562 6.019531 C 137.472656 6.46875 144.730469 14.007812 144.730469 23.242188 Z M 144.730469 23.242188" fill-opacity="1" fill-rule="nonzero"/><path fill="#59818e" d="M 118.09375 58.480469 L 136.886719 58.480469 C 136.886719 63.667969 132.679688 67.875 127.488281 67.875 C 122.300781 67.875 118.09375 63.671875 118.09375 58.480469 Z M 118.09375 58.480469" fill-opacity="1" fill-rule="nonzero"/><path fill="#59818e" d="M 136.152344 53.550781 L 118.824219 53.550781 C 117.15625 53.550781 115.804688 52.199219 115.804688 50.527344 C 115.804688 48.859375 117.15625 47.507812 118.824219 47.507812 L 136.152344 47.507812 C 137.820312 47.507812 139.175781 48.859375 139.175781 50.527344 C 139.175781 52.199219 137.820312 53.550781 136.152344 53.550781 Z M 136.152344 53.550781" fill-opacity="1" fill-rule="nonzero"/><path fill="#7a9aa5" d="M 136.152344 59.496094 L 118.824219 59.496094 C 117.15625 59.496094 115.804688 58.140625 115.804688 56.472656 C 115.804688 54.804688 117.15625 53.449219 118.824219 53.449219 L 136.152344 53.449219 C 137.820312 53.449219 139.175781 54.804688 139.175781 56.472656 C 139.175781 58.140625 137.820312 59.496094 136.152344 59.496094 Z M 136.152344 59.496094" fill-opacity="1" fill-rule="nonzero"/><path fill="#59818e" d="M 208.234375 151.097656 C 206.835938 152.496094 204.570312 152.496094 203.171875 151.097656 L 175.960938 123.882812 C 175.078125 123 174.753906 121.765625 174.984375 120.628906 L 167.132812 112.773438 L 169.917969 109.988281 L 177.769531 117.84375 C 178.007812 117.792969 178.25 117.769531 178.492188 117.769531 C 179.410156 117.769531 180.324219 118.117188 181.023438 118.816406 L 208.234375 146.03125 C 209.632812 147.429688 209.632812 149.699219 208.234375 151.097656 Z M 208.234375 151.097656" fill-opacity="1" fill-rule="nonzero"/><path fill="#59818e" d="M 153.972656 78.402344 C 142.304688 78.402344 132.84375 87.863281 132.84375 99.535156 C 132.84375 111.203125 142.304688 120.664062 153.972656 120.664062 C 165.640625 120.664062 175.101562 111.203125 175.101562 99.535156 C 175.101562 87.863281 165.640625 78.402344 153.972656 78.402344 Z M 153.972656 115.480469 C 145.167969 115.480469 138.027344 108.339844 138.027344 99.535156 C 138.027344 90.726562 145.167969 83.585938 153.972656 83.585938 C 162.777344 83.585938 169.917969 90.726562 169.917969 99.535156 C 169.917969 108.339844 162.777344 115.480469 153.972656 115.480469 Z M 153.972656 115.480469" fill-opacity="1" fill-rule="nonzero"/></svg>